<?xml version="1.0" encoding="utf-8"?>
<!-- Generator: Adobe Illustrator 21.1.0, SVG Export Plug-In . SVG Version: 6.00 Build 0)  -->
<svg version="1.1" id="Слой_1" xmlns="http://www.w3.org/2000/svg" xmlns:xlink="http://www.w3.org/1999/xlink" x="0px" y="0px"
	 viewBox="0 0 16.2 16.2" enable-background="new 0 0 16.2 16.2" xml:space="preserve">
<title>Path</title>
<desc>Created with Sketch.</desc>
<g id="Page-1">
	<g id="Интерьеры" transform="translate(-60.000000, -70.000000)">
		<g id="Group-9" transform="translate(50.000000, 60.000000)">
			<g id="Group-3">
				<path id="Path" fill="#FFFFFF" d="M24.3,25.8l-6.2-6.2l-6.2,6.2c-0.4,0.4-1.1,0.4-1.5,0c-0.4-0.4-0.4-1.1,0-1.5l6.2-6.2
					l-6.2-6.2c-0.4-0.4-0.4-1.1,0-1.5c0.4-0.4,1.1-0.4,1.5,0l6.2,6.2l6.2-6.2c0.4-0.4,1.1-0.4,1.5,0c0.4,0.4,0.4,1.1,0,1.5l-6.2,6.2
					l6.2,6.2c0.4,0.4,0.4,1.1,0,1.5C25.4,26.3,24.7,26.3,24.3,25.8L24.3,25.8z"/>
			</g>
		</g>
	</g>
</g>
</svg>
