<?xml version="1.0" encoding="UTF-8" standalone="no"?>
<svg width="10px" height="12px" viewBox="0 0 10 12" version="1.1" xmlns="http://www.w3.org/2000/svg" xmlns:xlink="http://www.w3.org/1999/xlink">
    <!-- Generator: Sketch 50 (54983) - http://www.bohemiancoding.com/sketch -->
    <title>Combined Shape</title>
    <desc>Created with Sketch.</desc>
    <defs></defs>
    <g id="Page-1" stroke="none" stroke-width="1" fill="none" fill-rule="evenodd">
        <g id="Расположение-маршрут" transform="translate(-910.000000, -213.000000)" fill="#BAC9D9">
            <g id="Group-8" transform="translate(880.000000, 184.000000)">
                <path d="M34.9996311,29 L34.9998323,29 C37.7568526,29 39.9994769,31.2282992 40,33.9680222 C40,35.0948341 39.609639,36.1980408 38.9017659,37.0748189 C38.0313609,38.152581 35.2931571,40.7245735 35.1773606,40.8333907 L34.9997384,41 L34.8226394,40.8333907 C34.7062098,40.7240952 31.9680221,38.1525677 31.0982341,37.0748189 C30.3898245,36.197521 30,35.0941944 30,33.9680222 C30,31.2284325 32.2424767,29 34.9996311,29 Z M35,31.9333333 C33.8828081,31.9333333 32.972973,32.8302092 32.972973,33.9333333 C32.972973,35.0364368 33.8819688,35.9333333 35,35.9333333 C36.1180312,35.9333333 37.027027,35.0356501 37.027027,33.9333333 C37.027027,32.8302299 36.1180312,31.9333333 35,31.9333333 Z" id="Combined-Shape"></path>
            </g>
        </g>
    </g>
</svg>