<?xml version="1.0" encoding="UTF-8" standalone="no"?>
<svg width="15px" height="17px" viewBox="0 0 15 17" version="1.1" xmlns="http://www.w3.org/2000/svg" xmlns:xlink="http://www.w3.org/1999/xlink">
    <!-- Generator: Sketch 50 (54983) - http://www.bohemiancoding.com/sketch -->
    <title>Page 1</title>
    <desc>Created with Sketch.</desc>
    <defs></defs>
    <g id="Page-1" stroke="none" stroke-width="1" fill="none" fill-rule="evenodd">
        <g id="Расположение-маршрут" transform="translate(-1391.000000, -159.000000)" fill="#FFFFFF">
            <g id="Group-2" transform="translate(1381.000000, 150.000000)">
                <g id="Page-1" transform="translate(10.000000, 9.500000)">
                    <path d="M1.15346214,8 L1.15342753,8 C1.15342753,8.31538595 0.895155911,8.5711849 0.576721477,8.5711849 C0.258286869,8.5711849 1.52523061e-05,8.31538595 1.52523061e-05,8 C-0.00396561299,6.04593736 0.771454849,4.16906696 2.15677866,2.77825229 C3.54281211,1.38745476 5.42714605,0.594620285 7.39992442,0.571853458 C9.3727028,0.549739757 11.2746218,1.29977136 12.6923983,2.65911258 L12.6923983,0.571853458 C12.6923983,0.255798954 12.9506699,0 13.2691045,0 C13.5882141,0 13.8464858,0.255781811 13.8464858,0.571853458 L13.8464858,4.00033428 C13.8471781,4.24675634 13.6882896,4.46639853 13.4516532,4.54407419 L9.99003116,5.6871297 C9.68713923,5.78689849 9.360575,5.62418279 9.25983661,5.32485927 C9.15910341,5.0248672 9.32271698,4.70076091 9.6256089,4.60098697 L12.1813244,3.75725499 C11.0230657,2.50363098 9.40181504,1.76839326 7.68727366,1.71816602 C5.97273229,1.66793878 4.31018448,2.30748759 3.0796817,3.4913763 C1.84848661,4.67471645 1.15413889,6.30115347 1.15346214,8 Z M14.4232439,7.4288151 L14.4232681,7.42880481 C14.5760641,7.42880481 14.722785,7.48907065 14.8309607,7.59621067 C14.9391364,7.7033507 14.9999847,7.84866514 14.9999847,8 C15.0039656,9.95406264 14.228545,11.830933 12.8432212,13.2217477 C11.4571877,14.6125452 9.57285378,15.4053797 7.60007541,15.4281465 C5.62729703,15.4502602 3.72537806,14.7002286 2.30760153,13.3408874 L2.30760153,15.4281465 C2.30760153,15.744201 2.04932992,16 1.73089531,16 C1.41178569,16 1.15351407,15.744218 1.15351407,15.4281465 L1.15351407,11.9996657 C1.15282174,11.7532437 1.31171019,11.5336015 1.54834667,11.4559258 L5.00996867,10.3128703 C5.3128606,10.2131015 5.63942482,10.3758172 5.74016321,10.6751407 C5.84089641,10.9751328 5.67728285,11.2992391 5.37439093,11.399013 L2.81867541,12.242745 C3.97693413,13.496369 5.59818479,14.2316067 7.31272616,14.281834 C9.02726754,14.3320612 10.6898154,13.6925124 11.9203181,12.5086237 C13.1515132,11.3252835 13.8458609,9.69884653 13.8465377,8 C13.8465377,7.68461405 14.1048093,7.4288151 14.4232439,7.4288151 Z" id="Combined-Shape"></path>
                </g>
            </g>
        </g>
    </g>
</svg>