<?xml version="1.0" encoding="UTF-8"?>
<svg width="149px" height="59px" viewBox="0 0 149 59" version="1.1" xmlns="http://www.w3.org/2000/svg" xmlns:xlink="http://www.w3.org/1999/xlink">
    <!-- Generator: Sketch 49.1 (51147) - http://www.bohemiancoding.com/sketch -->
    <title>logo</title>
    <desc>Created with Sketch.</desc>
    <defs></defs>
    <g id="Symbols" stroke="none" stroke-width="1" fill="none" fill-rule="evenodd">
        <g id="Sidebar" transform="translate(-63.000000, -31.000000)" fill="#FFFFFF" fill-rule="nonzero">
            <g id="logo">
                <g transform="translate(0.000000, 31.000000)">
                    <g id="Diamond_Logo_Full_18-04-23" transform="translate(63.000000, 0.000000)">
                        <g id="logo">
                            <path d="M44.0152284,55.3850575 L45.7817259,53 L47,53 L45.9340102,58 L44.8984772,58 L45.5989848,54.6954023 L45.5380711,54.6954023 L44.8375635,55.6436782 L43.6497462,57.1666667 L43.1015228,55.5574713 L42.7969543,54.6954023 L42.7664975,54.6954023 L42.0659898,58 L41,58 L42.0659898,53 L43.2233503,53 L43.9847716,55.3850575 L44.0152284,55.3850575 Z M52.379085,53.5666667 C52.5751634,53.7666667 52.7385621,54 52.8366013,54.3 C52.9346405,54.6 53,54.9666667 53,55.3666667 C53,55.8666667 52.9019608,56.3333333 52.7712418,56.7666667 C52.6078431,57.2 52.4117647,57.6 52.1503268,57.9333333 C51.8888889,58.2333333 51.5947712,58.5 51.2352941,58.7 C50.875817,58.9 50.4836601,59 50.0588235,59 C49.7647059,59 49.5359477,58.9666667 49.2745098,58.8666667 C49.0130719,58.7666667 48.8169935,58.6333333 48.620915,58.4333333 C48.4248366,58.2333333 48.2614379,58 48.1633987,57.7 C48.0653595,57.4 48,57.0333333 48,56.6333333 C48,56.1333333 48.0980392,55.6666667 48.2287582,55.2333333 C48.3921569,54.8 48.5882353,54.4 48.8496732,54.0666667 C49.1111111,53.7666667 49.4052288,53.5 49.7647059,53.3 C50.124183,53.1 50.5163399,53 50.9411765,53 C51.2352941,53 51.4640523,53.0333333 51.7254902,53.1333333 C51.9869281,53.2333333 52.1830065,53.3666667 52.379085,53.5666667 Z M51.7908497,55.3333333 C51.7908497,55.2666667 51.8235294,55.2 51.7908497,55.1333333 C51.7908497,54.4333333 51.496732,54.0666667 50.875817,54.0666667 C50.4836601,54.0666667 50.1568627,54.2 49.9281046,54.4666667 C49.6993464,54.7333333 49.5359477,55.1 49.4379085,55.5666667 L49.2745098,56.4333333 C49.2418301,56.5333333 49.2418301,56.6 49.2418301,56.6666667 C49.2418301,56.7333333 49.2418301,56.8 49.2418301,56.8666667 C49.2418301,57.5666667 49.5359477,57.9333333 50.1568627,57.9333333 C50.5490196,57.9333333 50.875817,57.8 51.1045752,57.5333333 C51.3333333,57.2666667 51.496732,56.9 51.5947712,56.4333333 L51.7581699,55.5666667 C51.7908497,55.4666667 51.7908497,55.4 51.7908497,55.3333333 Z M56.3026316,54.2333333 C56.1381579,54.3666667 56.0394737,54.5333333 55.9736842,54.8333333 C55.9736842,55 56.0394737,55.1 56.1381579,55.2 C56.2368421,55.3 56.4013158,55.3666667 56.5986842,55.4 L56.9605263,55.4666667 C57.1578947,55.5333333 57.3881579,55.6 57.5526316,55.6666667 C57.75,55.7333333 57.8815789,55.8333333 58.0131579,55.9666667 C58.1447368,56.0666667 58.2434211,56.2333333 58.3092105,56.4 C58.375,56.5666667 58.4078947,56.7666667 58.4078947,57 C58.4078947,57.2333333 58.3421053,57.5 58.2434211,57.7333333 C58.1447368,57.9666667 57.9802632,58.1666667 57.7828947,58.3666667 C57.5855263,58.5666667 57.3552632,58.7 57.0592105,58.8333333 C56.7960526,58.9333333 56.4671053,59 56.1052632,59 C55.6447368,59 55.2171053,58.9333333 54.8552632,58.7666667 C54.4934211,58.6 54.1973684,58.3333333 54,57.9666667 L54.9210526,57.2333333 C55.0526316,57.4666667 55.2171053,57.6666667 55.4144737,57.7666667 C55.6118421,57.8666667 55.8421053,57.9333333 56.1381579,57.9333333 C56.4671053,57.9333333 56.7302632,57.8666667 56.9276316,57.7 C57.125,57.5333333 57.2236842,57.3333333 57.2236842,57.1 C57.2236842,56.9333333 57.1578947,56.8 57.0263158,56.7 C56.8947368,56.6 56.7631579,56.5333333 56.5657895,56.5 L56.2039474,56.4 C56.0065789,56.3333333 55.8092105,56.2666667 55.6447368,56.2 C55.4802632,56.1333333 55.3486842,56.0333333 55.2171053,55.9 C55.1184211,55.8 55.0197368,55.6333333 54.9539474,55.4666667 C54.8881579,55.3 54.8552632,55.1 54.8552632,54.8666667 C54.8552632,54.6 54.9210526,54.3666667 55.0197368,54.1333333 C55.1513158,53.9 55.2828947,53.7 55.4802632,53.5333333 C55.6776316,53.3666667 55.9078947,53.2333333 56.1710526,53.1333333 C56.4342105,53.0333333 56.7302632,53 57.0592105,53 C57.4868421,53 57.8815789,53.0666667 58.2105263,53.2 C58.5394737,53.3333333 58.8026316,53.5333333 59,53.8 L58.1447368,54.5666667 C58.0131579,54.3666667 57.8486842,54.2333333 57.6842105,54.1666667 C57.5197368,54.0666667 57.2894737,54.0333333 56.9934211,54.0333333 C56.6973684,54.0333333 56.4671053,54.1 56.3026316,54.2333333 Z M62.2837838,55.877095 C62.2837838,55.9608939 62.2837838,56.0167598 62.1824324,56.0446927 C62.1824324,56.1005587 62.1824324,56.1564246 62.1824324,56.2122905 C62.1824324,56.7988827 62.5202703,57.1061453 63.1621622,57.1061453 C63.4662162,57.1061453 63.7364865,57.0502793 63.9391892,56.9106145 C64.1418919,56.7709497 64.3108108,56.603352 64.4459459,56.3798883 L65.4594595,56.7709497 C65.1891892,57.1899441 64.8513514,57.4972067 64.4459459,57.6927374 C64.0405405,57.8882682 63.5675676,58 63.0608108,58 C62.7567568,58 62.4864865,57.972067 62.2162162,57.8882682 C61.9797297,57.8044693 61.7432432,57.6927374 61.5743243,57.5251397 C61.3716216,57.3575419 61.2364865,57.1620112 61.1351351,56.9106145 C61.0337838,56.6592179 61,56.3798883 61,56.0446927 C61,55.5977654 61.0675676,55.2067039 61.2364865,54.8435754 C61.4054054,54.452514 61.6081081,54.1452514 61.8783784,53.8659218 C62.1486486,53.5865922 62.4527027,53.3910615 62.8243243,53.2234637 C63.1959459,53.0837989 63.5675676,53 64.0067568,53 C64.5472973,53 64.9527027,53.1117318 65.2905405,53.3072626 C65.6283784,53.5027933 65.8648649,53.8100559 66,54.1731844 L64.9189189,54.5363128 C64.8851351,54.452514 64.8175676,54.3687151 64.7837838,54.2849162 C64.7162162,54.2290503 64.6486486,54.1452514 64.5810811,54.0893855 C64.5135135,54.0335196 64.4121622,53.9776536 64.3108108,53.9497207 C64.2094595,53.9217877 64.0743243,53.8938547 63.9054054,53.8938547 C63.5337838,53.8938547 63.1959459,54.0055866 62.9594595,54.2290503 C62.722973,54.452514 62.5540541,54.7597765 62.4527027,55.122905 L62.2837838,55.877095 Z M71.379085,53.5666667 C71.5751634,53.7666667 71.7385621,54 71.8366013,54.3 C71.9346405,54.6 72,54.9666667 72,55.3666667 C72,55.8666667 71.9019608,56.3333333 71.7712418,56.7666667 C71.6078431,57.2 71.4117647,57.6 71.1503268,57.9333333 C70.8888889,58.2333333 70.5947712,58.5 70.2352941,58.7 C69.875817,58.9 69.4836601,59 69.0588235,59 C68.7647059,59 68.5359477,58.9666667 68.2745098,58.8666667 C68.0130719,58.7666667 67.8169935,58.6333333 67.620915,58.4333333 C67.4248366,58.2333333 67.2614379,58 67.1633987,57.7 C67.0653595,57.4 67,57.0333333 67,56.6333333 C67,56.1333333 67.0980392,55.6666667 67.2287582,55.2333333 C67.3921569,54.8 67.5882353,54.4 67.8496732,54.0666667 C68.1111111,53.7666667 68.4052288,53.5 68.7647059,53.3 C69.124183,53.1 69.5163399,53 69.9411765,53 C70.2352941,53 70.4640523,53.0333333 70.7254902,53.1333333 C70.9869281,53.2333333 71.1830065,53.3666667 71.379085,53.5666667 Z M70.7908497,55.3333333 C70.7908497,55.2666667 70.8235294,55.2 70.7908497,55.1333333 C70.7908497,54.4333333 70.496732,54.0666667 69.875817,54.0666667 C69.4836601,54.0666667 69.1568627,54.2 68.9281046,54.4666667 C68.6993464,54.7333333 68.5359477,55.1 68.4379085,55.5666667 L68.2745098,56.4333333 C68.2418301,56.5333333 68.2418301,56.6 68.2418301,56.6666667 C68.2418301,56.7333333 68.2418301,56.8 68.2418301,56.8666667 C68.2418301,57.5666667 68.5359477,57.9333333 69.1568627,57.9333333 C69.5490196,57.9333333 69.875817,57.8 70.1045752,57.5333333 C70.3333333,57.2666667 70.496732,56.9 70.5947712,56.4333333 L70.7581699,55.5666667 C70.7908497,55.4666667 70.7908497,55.4 70.7908497,55.3333333 Z M78.912844,55.2413793 L79.8440367,53 L81,53 L78.6880734,58 L77.3394495,58 L77.2752294,55.9022989 L77.2752294,54.1781609 L77.2110092,54.1781609 L76.5045872,55.7586207 L75.4770642,58 L74.0963303,58 L74,53 L75.1238532,53 L75.0917431,55.0114943 L74.9954128,56.9655172 L75.0917431,56.9655172 L75.8623853,55.1264368 L76.8577982,53 L78.1422018,53 L78.1743119,55.0114943 L78.1422018,57.0229885 L78.206422,57.0229885 L78.912844,55.2413793 Z M86.2837838,55.877095 C86.25,55.9608939 86.25,56.0167598 86.1824324,56.0446927 C86.1824324,56.1005587 86.1824324,56.1564246 86.1824324,56.2122905 C86.1824324,56.7988827 86.5202703,57.1061453 87.1621622,57.1061453 C87.4662162,57.1061453 87.7364865,57.0502793 87.9391892,56.9106145 C88.1418919,56.7709497 88.3108108,56.603352 88.4459459,56.3798883 L89.4594595,56.7709497 C89.1891892,57.1899441 88.8513514,57.4972067 88.4459459,57.6927374 C88.0405405,57.8882682 87.5675676,58 87.0608108,58 C86.7567568,58 86.4864865,57.972067 86.2162162,57.8882682 C85.9797297,57.8044693 85.7432432,57.6927374 85.5743243,57.5251397 C85.3716216,57.3575419 85.2364865,57.1620112 85.1351351,56.9106145 C85.0337838,56.6592179 85,56.3798883 85,56.0446927 C85,55.5977654 85.0675676,55.2067039 85.2364865,54.8435754 C85.4054054,54.452514 85.6081081,54.1452514 85.8783784,53.8659218 C86.1486486,53.5865922 86.4527027,53.3910615 86.8243243,53.2234637 C87.1959459,53.0837989 87.5675676,53 88.0067568,53 C88.5472973,53 88.9527027,53.1117318 89.2905405,53.3072626 C89.6283784,53.5027933 89.8648649,53.8100559 90,54.1731844 L88.9189189,54.5363128 C88.8851351,54.452514 88.8175676,54.3687151 88.7837838,54.2849162 C88.7162162,54.2290503 88.6486486,54.1452514 88.5810811,54.0893855 C88.5135135,54.0335196 88.4121622,53.9776536 88.3108108,53.9497207 C88.2094595,53.9217877 88.0743243,53.8938547 87.9054054,53.8938547 C87.5337838,53.8938547 87.1959459,54.0055866 86.9594595,54.2290503 C86.722973,54.452514 86.5540541,54.7597765 86.4527027,55.122905 L86.2837838,55.877095 Z M91.7631579,53.862069 L91.9210526,53 L94,53 L93.8421053,53.862069 L93.2894737,53.862069 L92.6578947,57.137931 L93.2368421,57.137931 L93.0789474,58 L91,58 L91.1578947,57.137931 L91.7105263,57.137931 L92.3421053,53.862069 L91.7631579,53.862069 Z M96,53.9195402 L96.2089552,53 L100,53 L99.8208955,53.9195402 L98.4477612,53.9195402 L97.6119403,58 L96.5373134,58 L97.3731343,53.9195402 L96,53.9195402 Z M104.05298,55.0977011 L105.708609,53 L107,53 L104.384106,56.1609195 L103.953642,58 L102.761589,58 L103.225166,56.045977 L102,53 L103.225166,53 L103.986755,55.0977011 L104.05298,55.0977011 Z M3.72434018,33 L6.30498534,33 L10,45 L7.82991202,45 L6.95014663,41.952381 L3.02052786,41.952381 L2.14076246,45 L0,45 L3.72434018,33 Z M3.51906158,39.984127 L6.4516129,39.984127 L5.01466276,35.031746 L4.92668622,35.031746 L3.51906158,39.984127 Z M25.0176056,34.9617486 C25.334507,35.2622951 25.556338,35.6229508 25.7464789,36.0737705 C25.9049296,36.5245902 26,37.0054645 26,37.5163934 C26,38.057377 25.9049296,38.5382514 25.7464789,38.9590164 C25.5880282,39.3797814 25.3661972,39.7704918 25.0492958,40.0710383 C24.7323944,40.3715847 24.3521127,40.6120219 23.9084507,40.7923497 C23.4647887,40.942623 22.9577465,41.0327869 22.4190141,41.0327869 L19.2816901,41.0327869 L19.2816901,45 L17,45 L17,34 L22.3873239,34 C22.9260563,34 23.4330986,34.0601093 23.8767606,34.2404372 C24.3204225,34.420765 24.7007042,34.6612022 25.0176056,34.9617486 Z M23.6232394,37.8770492 L23.6232394,37.1256831 C23.6232394,36.7349727 23.4964789,36.4043716 23.2429577,36.1939891 C22.9894366,35.9836066 22.6408451,35.863388 22.1971831,35.863388 L19.2816901,35.863388 L19.2816901,39.1693989 L22.1971831,39.1693989 C22.6408451,39.1693989 22.9894366,39.0491803 23.2429577,38.8387978 C23.4964789,38.5983607 23.6232394,38.2978142 23.6232394,37.8770492 Z M36.3343109,34 L40,45 L37.829912,45 L36.9501466,42.3824363 L33.0205279,42.3824363 L32.1407625,45 L30,45 L33.7243402,34 L36.3343109,34 Z M33.5190616,40.4815864 L36.4516129,40.4815864 L35.0146628,36.0254958 L34.9266862,36.0254958 L33.5190616,40.4815864 Z M53.5793103,40.568915 L56,44 L53.5172414,44 L51.3448276,40.8328446 L49.2344828,40.8328446 L49.2344828,44 L47,44 L47,34 L52.3068966,34 C52.8655172,34 53.3310345,34.0879765 53.7655172,34.2346041 C54.2,34.4105572 54.5413793,34.6451613 54.8517241,34.9384164 C55.1310345,35.2316716 55.3793103,35.6129032 55.5344828,36.0234604 C55.6896552,36.4340176 55.7827586,36.9032258 55.7827586,37.431085 C55.7827586,38.1935484 55.5965517,38.8387097 55.2241379,39.3958944 C54.8517241,39.9530792 54.2931034,40.3343109 53.5793103,40.568915 Z M53.4551724,37.7829912 L53.4551724,37.0498534 C53.4551724,36.6686217 53.3310345,36.3460411 53.0827586,36.1407625 C52.8344828,35.9354839 52.4931034,35.8181818 52.0586207,35.8181818 L49.2034483,35.8181818 L49.2034483,39.0439883 L52.0586207,39.0439883 C52.4931034,39.0439883 52.8344828,38.9266862 53.0827586,38.7214076 C53.3310345,38.4868035 53.4551724,38.1935484 53.4551724,37.7829912 Z M67.6132404,45 L65.3867596,45 L65.3867596,36.9444444 L62,36.9444444 L62,35 L71,35 L71,36.9444444 L67.6132404,36.9444444 L67.6132404,45 Z M85.8810198,38.34375 L85.8186969,38.34375 L84.9150142,40.21875 L82.4844193,44.6875 L80.0849858,40.21875 L79.1813031,38.34375 L79.1189802,38.34375 L79.1189802,45 L77,45 L77,35 L79.5240793,35 L82.5467422,40.78125 L82.6090652,40.78125 L85.6005666,35 L88,35 L88,45 L85.8810198,45 L85.8810198,38.34375 Z M103,42.1524927 L103,44 L95,44 L95,34 L103,34 L103,35.8768328 L97.313253,35.8768328 L97.313253,38.0762463 L102.35743,38.0762463 L102.35743,39.9237537 L97.313253,39.9237537 L97.313253,42.1524927 L103,42.1524927 Z M116.966777,41.7280453 L116.966777,34 L119,34 L119,45 L116.637874,45 L113.259136,39.3597734 L112.093023,37.3031161 L112.033223,37.3031161 L112.033223,45 L110,45 L110,34 L112.362126,34 L115.770764,39.6402266 L116.936877,41.7280453 L116.966777,41.7280453 Z M126,34.9234973 L126,33 L135,33 L135,34.9234973 L131.632867,34.9234973 L131.632867,44 L129.367133,44 L129.367133,34.9234973 L126,34.9234973 Z M145.425532,37.971867 C146.670213,38.1867008 147.56383,38.5549872 148.138298,39.0153453 C148.712766,39.5677749 149,40.3350384 149,41.286445 C149,41.8388747 148.904255,42.3299233 148.712766,42.7902813 C148.489362,43.2506394 148.202128,43.6189258 147.819149,43.9565217 C147.43617,44.2941176 146.989362,44.5396419 146.414894,44.7237852 C145.87234,44.9079284 145.234043,45 144.5,45 C143.446809,45 142.585106,44.8465473 141.851064,44.4782609 C141.148936,44.1099744 140.510638,43.6496164 140,43.0664962 L141.531915,41.6240409 C141.946809,42.084399 142.425532,42.4219949 142.93617,42.6675192 C143.446809,42.9130435 143.989362,43.0358056 144.62766,43.0358056 C145.329787,43.0358056 145.87234,42.9130435 146.223404,42.6061381 C146.574468,42.3299233 146.765957,41.9309463 146.765957,41.4398977 C146.765957,41.0409207 146.638298,40.7340153 146.414894,40.488491 C146.159574,40.2429668 145.744681,40.0895141 145.106383,39.9667519 L143.957447,39.8132992 C141.56383,39.4450128 140.351064,38.3401535 140.351064,36.4373402 C140.351064,35.915601 140.446809,35.455243 140.638298,35.0255754 C140.829787,34.6265985 141.117021,34.258312 141.5,33.9514066 C141.882979,33.6445013 142.329787,33.398977 142.87234,33.2455243 C143.414894,33.0920716 144.021277,33 144.691489,33 C145.617021,33 146.414894,33.1534527 147.085106,33.4296675 C147.787234,33.7365729 148.361702,34.1662404 148.840426,34.7186701 L147.276596,36.1304348 C146.989362,35.7621483 146.606383,35.4859335 146.191489,35.2710997 C145.776596,35.056266 145.234043,34.9335038 144.595745,34.9335038 C143.957447,34.9335038 143.446809,35.056266 143.12766,35.3017903 C142.808511,35.5473146 142.648936,35.8849105 142.648936,36.314578 C142.648936,36.7749361 142.776596,37.0818414 143.031915,37.2966752 C143.287234,37.511509 143.734043,37.6649616 144.308511,37.7570332 L145.425532,37.971867 Z M0,4 L8.78125,4 L14,9.52631579 L14,12.3342817 L14,19.4736842 L8.78125,25 L0,25 L0,4 Z M11.28125,18.428165 L11.28125,10.571835 L7.15625,6.18065434 L2.65625,6.18065434 L2.65625,22.8193457 L7.15625,22.8193457 L11.28125,18.428165 Z M143.78125,4 L149,9.52631579 L149,12.3342817 L149,19.4736842 L143.78125,25 L135,25 L135,4 L143.78125,4 Z M146.28125,18.428165 L146.28125,10.571835 L142.15625,6.18065434 L137.65625,6.18065434 L137.65625,22.8193457 L142.15625,22.8193457 L146.28125,18.428165 Z M104.59867,25 L101.432373,25 L96,21.2062589 L96,7.79374111 L101.432373,4 L104.59867,4 L110,7.79374111 L110,21.2062589 L104.59867,25 Z M98.6696231,8.9886202 L98.6696231,19.9815078 L102.7051,22.9388336 L103.325942,22.9388336 L107.361419,19.9815078 L107.361419,8.9886202 L103.325942,6.03129445 L102.7051,6.03129445 L98.6696231,8.9886202 Z M41.59375,19.71875 L39.75,26 L37,26 L43.75,4 L47.25,4 L54,26 L51.1875,26 L49.3125,19.71875 L41.59375,19.71875 Z M45.3125,6.78125 L42.21875,17.40625 L48.6875,17.40625 L45.59375,6.78125 L45.3125,6.78125 Z M118.401806,7.34375 L118.401806,26 L116,26 L116,4 L119.792325,4 L127.376975,22.4375 L127.598194,22.4375 L127.598194,4 L130,4 L130,26 L126.207675,26 L118.623025,7.34375 L118.401806,7.34375 Z M33,22.9985775 L33,25 L20,25 L20,22.9985775 L25.2298851,22.9985775 L25.2298851,6.00142248 L20,6.00142248 L20,4 L33,4 L33,6.00142248 L27.7701149,6.00142248 L27.7701149,22.9985775 L33,22.9985775 Z M88.4081633,0.653846154 L88.4081633,2 L88,2 L88,0 L88.4897959,0 L88.9795918,0.923076923 L89.0204082,0.923076923 L89.5102041,0 L90,0 L90,2 L89.5510204,2 L89.5510204,0.692307692 L89.3877551,0.961538462 L88.9795918,1.65384615 L88.6122449,0.961538462 L88.4489796,0.653846154 L88.4081633,0.653846154 Z M90.1627907,1.73584906 C90.1162791,1.66037736 90.0697674,1.54716981 90.0465116,1.43396226 C90.0232558,1.32075472 90,1.16981132 90,1.01886792 C90,0.830188679 90,0.679245283 90.0465116,0.566037736 C90.0930233,0.452830189 90.1162791,0.339622642 90.1627907,0.264150943 C90.2093023,0.188679245 90.255814,0.113207547 90.3255814,0.0754716981 C90.372093,0.0377358491 90.4651163,0 90.5348837,0 C90.6511628,0 90.744186,0.0377358491 90.8139535,0.113207547 C90.8837209,0.188679245 90.9302326,0.301886792 90.9767442,0.452830189 L90.744186,0.641509434 C90.744186,0.566037736 90.6976744,0.490566038 90.6744186,0.452830189 C90.6511628,0.41509434 90.6046512,0.377358491 90.5348837,0.377358491 C90.4651163,0.377358491 90.3953488,0.41509434 90.3488372,0.490566038 C90.3023256,0.566037736 90.2790698,0.679245283 90.2790698,0.830188679 L90.2790698,1.16981132 C90.2790698,1.32075472 90.3023256,1.43396226 90.3488372,1.50943396 C90.3953488,1.58490566 90.4651163,1.62264151 90.5348837,1.62264151 C90.6046512,1.62264151 90.6511628,1.58490566 90.6976744,1.54716981 C90.744186,1.50943396 90.7674419,1.43396226 90.7906977,1.35849057 L91,1.54716981 C90.9534884,1.69811321 90.8837209,1.81132075 90.8139535,1.88679245 C90.744186,1.96226415 90.6511628,2 90.5348837,2 C90.4651163,2 90.3953488,1.96226415 90.3255814,1.9245283 C90.255814,1.88679245 90.2093023,1.81132075 90.1627907,1.73584906 Z M91,11.1023965 L73.9957447,28 L71.973617,28 L55,11.1023965 L55,9.39433551 L64.4365957,0 L81.5634043,0 L91,9.39433551 L91,11.1023965 Z M82.2987234,4.20915033 L82.2987234,9.66884532 L87.7829787,9.66884532 L82.2987234,4.20915033 Z M82.053617,10.8278867 L74.6085106,23.9433551 L87.7829787,10.8278867 L82.053617,10.8278867 Z M81.1344681,9.66884532 L81.1344681,3.87363834 L75.3131915,9.66884532 L81.1344681,9.66884532 Z M73.5974468,1.15904139 L73.5974468,7.93028322 L80.3991489,1.15904139 L73.5974468,1.15904139 Z M64.9268085,3.93464052 L64.9268085,9.63834423 L70.6561702,9.63834423 L64.9268085,3.93464052 Z M63.7625532,4.11764706 L58.186383,9.66884532 L63.7625532,9.66884532 L63.7625532,4.11764706 Z M58.2170213,10.8278867 L71.3914894,23.9738562 L64.0076596,10.8278867 L58.2170213,10.8278867 Z M72.4025532,23.3943355 L72.4025532,10.8278867 L65.3251064,10.8278867 L72.4025532,23.3943355 Z M72.4025532,7.93028322 L72.4025532,1.15904139 L65.6008511,1.15904139 L72.4025532,7.93028322 Z M73.5974468,10.8278867 L73.5974468,23.3943355 L80.7361702,10.8278867 L73.5974468,10.8278867 Z" id="Combined-Shape"></path>
                        </g>
                    </g>
                </g>
            </g>
        </g>
    </g>
</svg>