<svg width="149" height="59" viewBox="0 0 149 59" xmlns="http://www.w3.org/2000/svg">
    <title>
        logo
    </title>
    <path d="M44.015 55.385L45.782 53H47l-1.066 5h-1.036l.701-3.305h-.06l-.701.949-1.188 1.523-.548-1.61-.305-.862h-.03L42.065 58H41l1.066-5h1.157l.762 2.385h.03zm8.364-1.818c.196.2.36.433.458.733.098.3.163.667.163 1.067 0 .5-.098.966-.229 1.4-.163.433-.36.833-.62 1.166-.262.3-.556.567-.916.767-.36.2-.751.3-1.176.3-.294 0-.523-.033-.784-.133a1.738 1.738 0 0 1-.654-.434c-.196-.2-.36-.433-.458-.733A3.473 3.473 0 0 1 48 56.633c0-.5.098-.966.229-1.4.163-.433.36-.833.62-1.166.262-.3.556-.567.916-.767.36-.2.751-.3 1.176-.3.294 0 .523.033.784.133.262.1.458.234.654.434zm-.588 1.766c0-.066.033-.133 0-.2 0-.7-.294-1.066-.915-1.066-.392 0-.72.133-.948.4-.229.266-.392.633-.49 1.1l-.163.866c-.033.1-.033.167-.033.234v.2c0 .7.294 1.066.915 1.066.392 0 .719-.133.948-.4.228-.266.392-.633.49-1.1l.163-.866c.033-.1.033-.167.033-.234zm4.512-1.1c-.165.134-.264.3-.33.6a.48.48 0 0 0 .165.367c.099.1.263.167.46.2l.363.067c.197.066.427.133.592.2.197.066.329.166.46.3.132.1.23.266.296.433.066.167.099.367.099.6 0 .233-.066.5-.165.733-.098.234-.263.434-.46.634s-.428.333-.724.466c-.263.1-.592.167-.954.167-.46 0-.888-.067-1.25-.233a1.817 1.817 0 0 1-.855-.8l.921-.734c.132.234.296.434.493.534.198.1.428.166.724.166.33 0 .592-.066.79-.233a.76.76 0 0 0 .296-.6c0-.167-.066-.3-.198-.4a.976.976 0 0 0-.46-.2l-.362-.1c-.197-.067-.395-.133-.56-.2a1.251 1.251 0 0 1-.427-.3 1.373 1.373 0 0 1-.263-.433 1.634 1.634 0 0 1-.099-.6c0-.267.066-.5.165-.734.131-.233.263-.433.46-.6.198-.166.428-.3.691-.4.263-.1.56-.133.888-.133.428 0 .823.067 1.152.2.328.133.592.333.789.6l-.855.767a1.032 1.032 0 0 0-.46-.4c-.165-.1-.396-.134-.692-.134-.296 0-.526.067-.69.2zm5.98 1.644c0 .084 0 .14-.1.168v.167c0 .587.337.894.98.894.303 0 .573-.056.776-.195.203-.14.372-.308.507-.531l1.013.39c-.27.42-.608.727-1.013.923A3.19 3.19 0 0 1 63.06 58a2.78 2.78 0 0 1-.845-.112c-.236-.084-.473-.195-.642-.363a1.474 1.474 0 0 1-.439-.614c-.101-.252-.135-.531-.135-.866 0-.447.068-.838.236-1.201.17-.391.372-.699.642-.978.27-.28.575-.475.946-.643.372-.14.744-.223 1.183-.223.54 0 .946.112 1.284.307.337.196.574.503.709.866l-1.081.363c-.034-.083-.101-.167-.135-.251-.068-.056-.135-.14-.203-.196a.771.771 0 0 0-.27-.14 1.5 1.5 0 0 0-.406-.055c-.371 0-.71.112-.946.335-.236.224-.405.53-.506.894l-.17.754zm9.096-2.31c.196.2.36.433.458.733.098.3.163.667.163 1.067 0 .5-.098.966-.229 1.4-.163.433-.36.833-.62 1.166-.262.3-.556.567-.916.767-.36.2-.751.3-1.176.3-.294 0-.523-.033-.784-.133a1.738 1.738 0 0 1-.654-.434c-.196-.2-.36-.433-.458-.733A3.473 3.473 0 0 1 67 56.633c0-.5.098-.966.229-1.4.163-.433.36-.833.62-1.166.262-.3.556-.567.916-.767.36-.2.751-.3 1.176-.3.294 0 .523.033.784.133.262.1.458.234.654.434zm-.588 1.766c0-.066.033-.133 0-.2 0-.7-.294-1.066-.915-1.066-.392 0-.72.133-.948.4-.229.266-.392.633-.49 1.1l-.163.866c-.033.1-.033.167-.033.234v.2c0 .7.294 1.066.915 1.066.392 0 .719-.133.948-.4.228-.266.392-.633.49-1.1l.163-.866c.033-.1.033-.167.033-.234zm8.122-.092L79.844 53H81l-2.312 5H77.34l-.064-2.098v-1.724h-.064l-.706 1.58L75.477 58h-1.38L74 53h1.124l-.032 2.011-.097 1.955h.097l.77-1.84.996-2.126h1.284l.032 2.011-.032 2.012h.064l.707-1.782zm7.37.636c-.033.084-.033.14-.1.168v.167c0 .587.337.894.98.894.303 0 .573-.056.776-.195.203-.14.372-.308.507-.531l1.013.39c-.27.42-.608.727-1.013.923A3.19 3.19 0 0 1 87.06 58a2.78 2.78 0 0 1-.845-.112c-.236-.084-.473-.195-.642-.363a1.474 1.474 0 0 1-.439-.614c-.101-.252-.135-.531-.135-.866 0-.447.068-.838.236-1.201.17-.391.372-.699.642-.978.27-.28.575-.475.946-.643.372-.14.744-.223 1.183-.223.54 0 .946.112 1.284.307.337.196.574.503.709.866l-1.081.363c-.034-.083-.101-.167-.135-.251-.068-.056-.135-.14-.203-.196a.771.771 0 0 0-.27-.14 1.5 1.5 0 0 0-.406-.055c-.371 0-.71.112-.946.335-.236.224-.405.53-.506.894l-.17.754zm5.48-2.015l.158-.862H94l-.158.862h-.553l-.631 3.276h.579l-.158.862H91l.158-.862h.553l.631-3.276h-.579zM96 53.92l.209-.92H100l-.18.92h-1.372L97.612 58h-1.075l.836-4.08H96zm8.053 1.178L105.709 53H107l-2.616 3.16-.43 1.84h-1.192l.463-1.954L102 53h1.225l.762 2.098h.066zM3.724 33h2.581L10 45H7.83l-.88-3.048H3.02L2.14 45H0l3.724-12zm-.205 6.984h2.933l-1.437-4.952h-.088l-1.408 4.952zm21.499-5.022c.317.3.538.661.728 1.112.159.45.254.931.254 1.442 0 .541-.095 1.022-.254 1.443-.158.42-.38.811-.697 1.112-.317.3-.697.541-1.14.721-.444.15-.951.24-1.49.24h-3.137V45H17V34h5.387c.54 0 1.046.06 1.49.24.443.18.824.421 1.14.722zm-1.395 2.915v-.751c0-.391-.127-.722-.38-.932-.254-.21-.602-.33-1.046-.33h-2.915v3.305h2.915c.444 0 .792-.12 1.046-.33.253-.24.38-.541.38-.962zM36.334 34L40 45h-2.17l-.88-2.618h-3.93L32.14 45H30l3.724-11h2.61zm-2.815 6.482h2.933l-1.437-4.457h-.088l-1.408 4.457zm20.06.087L56 44h-2.483l-2.172-3.167h-2.11V44H47V34h5.307c.559 0 1.024.088 1.459.235.434.176.775.41 1.086.703a3.3 3.3 0 0 1 .682 1.085c.156.411.249.88.249 1.408 0 .763-.186 1.408-.559 1.965-.372.557-.93.938-1.645 1.173zm-.124-2.786v-.733c0-.381-.124-.704-.372-.91-.249-.205-.59-.322-1.024-.322h-2.856v3.226h2.856c.434 0 .775-.117 1.024-.323.248-.234.372-.527.372-.938zM67.613 45h-2.226v-8.056H62V35h9v1.944h-3.387V45zm18.268-6.656h-.062l-.904 1.875-2.43 4.468-2.4-4.468-.904-1.875h-.062V45H77V35h2.524l3.023 5.781h.062L85.601 35H88v10h-2.119v-6.656zM103 42.152V44h-8V34h8v1.877h-5.687v2.2h5.044v1.847h-5.044v2.228H103zm13.967-.424V34H119v11h-2.362l-3.379-5.64-1.166-2.057h-.06V45H110V34h2.362l3.409 5.64 1.166 2.088h.03zM126 34.923V33h9v1.923h-3.367V44h-2.266v-9.077H126zm19.426 3.049c1.244.215 2.138.583 2.712 1.043.575.553.862 1.32.862 2.271a3.84 3.84 0 0 1-.287 1.504c-.224.46-.51.829-.894 1.167-.383.337-.83.583-1.404.767-.543.184-1.181.276-1.915.276-1.053 0-1.915-.153-2.649-.522-.702-.368-1.34-.828-1.851-1.412l1.532-1.442c.415.46.894.798 1.404 1.044.51.245 1.053.368 1.692.368.702 0 1.244-.123 1.595-.43.351-.276.543-.675.543-1.166 0-.4-.128-.706-.351-.952-.255-.245-.67-.398-1.309-.521l-1.149-.154c-2.393-.368-3.606-1.473-3.606-3.376 0-.521.096-.982.287-1.411a3.09 3.09 0 0 1 .862-1.075c.383-.306.83-.552 1.372-.705a6.66 6.66 0 0 1 1.82-.246c.925 0 1.723.153 2.393.43a4.85 4.85 0 0 1 1.755 1.289l-1.563 1.411c-.288-.368-.67-.644-1.086-.859-.414-.215-.957-.337-1.595-.337-.639 0-1.15.122-1.468.368-.32.245-.48.583-.48 1.013 0 .46.129.767.384.982.255.215.702.368 1.277.46l1.117.215zM0 4h8.781L14 9.526v9.948L8.781 25H0V4zm11.281 14.428v-7.856L7.156 6.18h-4.5v16.638h4.5l4.125-4.39zM143.781 4L149 9.526v9.948L143.781 25H135V4h8.781zm2.5 14.428v-7.856l-4.125-4.391h-4.5v16.638h4.5l4.125-4.39zM104.6 25h-3.167L96 21.206V7.794L101.432 4h3.167L110 7.794v13.412L104.599 25zm-5.93-16.011v10.993l4.036 2.957h.62l4.036-2.957V8.989l-4.035-2.958h-.62L98.67 8.99zm-57.075 10.73L39.75 26H37l6.75-22h3.5L54 26h-2.813l-1.874-6.281h-7.72zM45.312 6.78L42.22 17.406h6.468L45.594 6.781h-.282zm73.09.563V26H116V4h3.792l7.585 18.438h.221V4H130v22h-3.792l-7.585-18.656h-.221zM33 22.999V25H20v-2.001h5.23V6H20V4h13v2.001h-5.23V23H33zM88.408.654V2H88V0h.49l.49.923h.04L89.51 0H90v2h-.449V.692l-.163.27-.408.692-.368-.692-.163-.308h-.04zm1.755 1.082a.992.992 0 0 1-.116-.302A2.126 2.126 0 0 1 90 1.019c0-.189 0-.34.047-.453.046-.113.07-.226.116-.302a.497.497 0 0 1 .163-.189.388.388 0 0 1 .209-.075c.116 0 .21.038.279.113.07.076.116.189.163.34l-.233.189c0-.076-.046-.151-.07-.19a.16.16 0 0 0-.14-.075.22.22 0 0 0-.185.114c-.047.075-.07.188-.07.34v.339c0 .15.023.264.07.34a.22.22 0 0 0 .186.113c.07 0 .116-.038.163-.076.046-.038.07-.113.093-.189l.209.19a.883.883 0 0 1-.186.339.362.362 0 0 1-.28.113.47.47 0 0 1-.208-.075.497.497 0 0 1-.163-.19zM91 11.102L73.996 28h-2.022L55 11.102V9.394L64.437 0h17.126L91 9.394v1.708zM82.299 4.21v5.46h5.484l-5.484-5.46zm-.245 6.619l-7.445 13.115 13.174-13.115h-5.73zm-.92-1.16V3.875l-5.82 5.795h5.82zM73.597 1.16V7.93L80.4 1.16h-6.802zm-8.67 2.776v5.703h5.73l-5.73-5.703zm-1.164.183l-5.577 5.55h5.577v-5.55zm-5.546 6.71l13.174 13.146-7.383-13.146h-5.791zm14.186 12.566V10.828h-7.078l7.078 12.566zm0-15.464V1.16H65.6l6.802 6.771zm1.194 2.898v12.566l7.14-12.566h-7.14z" fill="#FFF" fill-rule="nonzero"/>
</svg>
