<?xml version="1.0" encoding="UTF-8"?><!DOCTYPE svg PUBLIC "-//W3C//DTD SVG 1.1//EN" "http://www.w3.org/Graphics/SVG/1.1/DTD/svg11.dtd"><svg xmlns="http://www.w3.org/2000/svg"><defs>
        <style>
            .cls-1{stroke:#000;opacity:.4}.cls-1,.cls-3{stroke-miterlimit:10}.cls-2{fill:#fff}.cls-3{fill:none;stroke:#fff;stroke-linecap:round}
        </style>
    </defs><symbol id="icon-arrow-left" viewBox="0 0 18 15.11">
    <title>
        arrow-left
    </title>
    <path data-name="Page-1" d="M9 13.26L4.26 8.63h12.66a1.08 1.08 0 1 0 0-2.16H4.26L9 1.84a1.07 1.07 0 0 0 0-1.5A1.14 1.14 0 0 0 7.4.32L0 7.55l7.4 7.23a1.14 1.14 0 0 0 1.58 0 1.07 1.07 0 0 0 0-1.51z"/>
</symbol><symbol id="icon-arrow-right" viewBox="0 0 10 16">
    <title>
        Page 1
    </title>
    <path d="M.32 13.263L6.23 7.555.32 1.847A1.065 1.065 0 0 1 .328.317a1.136 1.136 0 0 1 1.58.007l7.4 7.23-7.4 7.232a1.136 1.136 0 0 1-1.58.007 1.065 1.065 0 0 1-.008-1.53z" fill-rule="evenodd"/>
</symbol><symbol id="icon-circle" viewBox="0 0 10 10">
    <title>
        Combined Shape
    </title>
    <path d="M5 10A5 5 0 1 1 5 0a5 5 0 0 1 0 10zm0-3a2 2 0 1 0 0-4 2 2 0 0 0 0 4z" fill-rule="evenodd"/>
</symbol><symbol id="icon-close" viewBox="0 0 16.2 16.2">
    <title>
        Path
    </title>
    <path d="M14.3 15.8L8.1 9.6l-6.2 6.2c-.4.4-1.1.4-1.5 0-.4-.4-.4-1.1 0-1.5l6.2-6.2L.4 1.9C0 1.5 0 .8.4.4.8 0 1.5 0 1.9.4l6.2 6.2L14.3.4c.4-.4 1.1-.4 1.5 0 .4.4.4 1.1 0 1.5L9.6 8.1l6.2 6.2c.4.4.4 1.1 0 1.5-.4.5-1.1.5-1.5 0z"/>
</symbol><symbol id="icon-location" viewBox="0 0 20 19">
    <title>
        Page 1
    </title>
    <path d="M0 5.782l8.372 3.151c.29.122.494.398.552.704L10.232 19 20 0 0 5.782z" fill-rule="evenodd"/>
</symbol><symbol id="icon-marker" viewBox="0 0 10 12">
    <title>
        Combined Shape
    </title>
    <path d="M5 0c2.757 0 5 2.228 5 4.968 0 1.127-.39 2.23-1.098 3.107-.87 1.078-3.609 3.65-3.725 3.758L5 12l-.177-.167c-.117-.109-2.855-2.68-3.725-3.758A4.961 4.961 0 0 1 0 4.968C0 2.228 2.242 0 5 0zm0 2.933c-1.117 0-2.027.897-2.027 2s.909 2 2.027 2 2.027-.897 2.027-2-.909-2-2.027-2z" fill-rule="evenodd"/>
</symbol><symbol id="icon-play" viewBox="0 0 697.43 697.43">
    
    <title>
        play
    </title>
    <path class="cls-3" d="M908.46 710.6l275.18-157.24a23.37 23.37 0 0 0 0-40.58L908.46 355.55a23.38 23.38 0 0 0-35 20.29V690.3a23.38 23.38 0 0 0 35 20.3z" transform="translate(-642.98 -179.6)"/>
</symbol><symbol id="icon-rotate" viewBox="0 0 15 17">
    <title>
        Page 1
    </title>
    <path d="M1.153 8.5a.574.574 0 0 1-.576.571A.574.574 0 0 1 0 8.5a7.378 7.378 0 0 1 2.157-5.222A7.525 7.525 0 0 1 7.4 1.072a7.526 7.526 0 0 1 5.292 2.087V1.072c0-.316.259-.572.577-.572.32 0 .577.256.577.572V4.5a.571.571 0 0 1-.394.544L9.99 6.187a.579.579 0 0 1-.73-.362c-.1-.3.063-.624.366-.724l2.555-.844a6.372 6.372 0 0 0-4.494-2.039A6.378 6.378 0 0 0 3.08 3.991 6.256 6.256 0 0 0 1.153 8.5zm13.27-.571c.153 0 .3.06.408.167A.569.569 0 0 1 15 8.5a7.378 7.378 0 0 1-2.157 5.222A7.525 7.525 0 0 1 7.6 15.928a7.526 7.526 0 0 1-5.292-2.087v2.087a.574.574 0 0 1-.577.572.574.574 0 0 1-.577-.572V12.5c-.001-.247.158-.466.394-.544l3.462-1.143c.303-.1.63.063.73.362.1.3-.063.624-.366.724l-2.555.844a6.372 6.372 0 0 0 4.494 2.039 6.378 6.378 0 0 0 4.607-1.773A6.256 6.256 0 0 0 13.847 8.5c0-.315.258-.571.576-.571z" fill-rule="evenodd"/>
</symbol></svg>