<?xml version="1.0" encoding="UTF-8"?><!DOCTYPE svg PUBLIC "-//W3C//DTD SVG 1.1//EN" "http://www.w3.org/Graphics/SVG/1.1/DTD/svg11.dtd"><svg xmlns="http://www.w3.org/2000/svg"><symbol id="icon-arrow-left" viewBox="0 0 18 15.11">
    <title>
        arrow-left
    </title>
    <path data-name="Page-1" d="M9 13.26L4.26 8.63h12.66a1.08 1.08 0 1 0 0-2.16H4.26L9 1.84a1.07 1.07 0 0 0 0-1.5A1.14 1.14 0 0 0 7.4.32L0 7.55l7.4 7.23a1.14 1.14 0 0 0 1.58 0 1.07 1.07 0 0 0 0-1.51z"/>
</symbol><symbol id="icon-arrow-right" viewBox="0 0 10 16">
    <title>
        Page 1
    </title>
    <path d="M.32 13.263L6.23 7.555.32 1.847A1.065 1.065 0 0 1 .328.317a1.136 1.136 0 0 1 1.58.007l7.4 7.23-7.4 7.232a1.136 1.136 0 0 1-1.58.007 1.065 1.065 0 0 1-.008-1.53z" fill-rule="evenodd"/>
</symbol><symbol id="icon-close" viewBox="0 0 16.2 16.2">
    <title>
        Path
    </title>
    <path d="M14.3 15.8L8.1 9.6l-6.2 6.2c-.4.4-1.1.4-1.5 0-.4-.4-.4-1.1 0-1.5l6.2-6.2L.4 1.9C0 1.5 0 .8.4.4.8 0 1.5 0 1.9.4l6.2 6.2L14.3.4c.4-.4 1.1-.4 1.5 0 .4.4.4 1.1 0 1.5L9.6 8.1l6.2 6.2c.4.4.4 1.1 0 1.5-.4.5-1.1.5-1.5 0z"/>
</symbol></svg>