<svg id="Слой_1" data-name="Слой 1" xmlns="http://www.w3.org/2000/svg" viewBox="0 0 697.43 697.43">
    <defs>
        <style>
            .cls-1{stroke:#000;opacity:.4}.cls-1,.cls-3{stroke-miterlimit:10}.cls-2{fill:#fff}.cls-3{fill:none;stroke:#fff;stroke-linecap:round}
        </style>
    </defs>
    <title>
        play
    </title>
    <circle class="cls-1" cx="348.71" cy="348.71" r="348.21"/>
    <path class="cls-2" d="M908.46 710.6l275.18-157.24a23.37 23.37 0 0 0 0-40.58L908.46 355.55a23.38 23.38 0 0 0-35 20.29V690.3a23.38 23.38 0 0 0 35 20.3z" transform="translate(-642.98 -179.6)"/>
    <path class="cls-3" d="M908.46 710.6l275.18-157.24a23.37 23.37 0 0 0 0-40.58L908.46 355.55a23.38 23.38 0 0 0-35 20.29V690.3a23.38 23.38 0 0 0 35 20.3z" transform="translate(-642.98 -179.6)"/>
</svg>
